<svg width="22" height="28" viewBox="0 0 22 28" fill="none" xmlns="http://www.w3.org/2000/svg">
<path d="M20.3335 7.33332H16.3335V5.99999C16.3335 4.5855 15.7716 3.22895 14.7714 2.22875C13.7712 1.22856 12.4147 0.666656 11.0002 0.666656C9.58568 0.666656 8.22912 1.22856 7.22893 2.22875C6.22873 3.22895 5.66683 4.5855 5.66683 5.99999V7.33332H1.66683C1.31321 7.33332 0.974069 7.4738 0.724021 7.72385C0.473972 7.9739 0.333496 8.31303 0.333496 8.66666V23.3333C0.333496 24.3942 0.754924 25.4116 1.50507 26.1617C2.25521 26.9119 3.27263 27.3333 4.3335 27.3333H17.6668C18.7277 27.3333 19.7451 26.9119 20.4953 26.1617C21.2454 25.4116 21.6668 24.3942 21.6668 23.3333V8.66666C21.6668 8.31303 21.5264 7.9739 21.2763 7.72385C21.0263 7.4738 20.6871 7.33332 20.3335 7.33332ZM8.3335 5.99999C8.3335 5.29275 8.61445 4.61447 9.11455 4.11437C9.61464 3.61427 10.2929 3.33332 11.0002 3.33332C11.7074 3.33332 12.3857 3.61427 12.8858 4.11437C13.3859 4.61447 13.6668 5.29275 13.6668 5.99999V7.33332H8.3335V5.99999ZM19.0002 23.3333C19.0002 23.6869 18.8597 24.0261 18.6096 24.2761C18.3596 24.5262 18.0205 24.6667 17.6668 24.6667H4.3335C3.97987 24.6667 3.64074 24.5262 3.39069 24.2761C3.14064 24.0261 3.00016 23.6869 3.00016 23.3333V9.99999H5.66683V11.3333C5.66683 11.6869 5.80731 12.0261 6.05735 12.2761C6.3074 12.5262 6.64654 12.6667 7.00016 12.6667C7.35379 12.6667 7.69292 12.5262 7.94297 12.2761C8.19302 12.0261 8.3335 11.6869 8.3335 11.3333V9.99999H13.6668V11.3333C13.6668 11.6869 13.8073 12.0261 14.0574 12.2761C14.3074 12.5262 14.6465 12.6667 15.0002 12.6667C15.3538 12.6667 15.6929 12.5262 15.943 12.2761C16.193 12.0261 16.3335 11.6869 16.3335 11.3333V9.99999H19.0002V23.3333Z" fill="#3D5A80"/>
</svg>
