<svg width="30" height="30" viewBox="0 0 30 30" fill="none" xmlns="http://www.w3.org/2000/svg">
<path d="M18.2768 17.7643L18.2171 17.8241L18.1645 17.8901L16.9749 19.3828C14.4593 17.932 12.1446 15.6771 10.6518 13.1116L12.1723 11.8172L12.2285 11.7693L12.2798 11.7162C13.0115 10.9574 13.2274 9.89328 12.931 8.95026L12.9271 8.93793L12.923 8.92566C12.5136 7.69738 12.3 6.37052 12.3 4.9875C12.3 3.48407 11.0659 2.25 9.5625 2.25H5.2375C4.71544 2.25 4.02042 2.36011 3.40701 2.77016C2.7145 3.23308 2.25 4.00434 2.25 4.9875C2.25 17.429 12.5846 27.75 25.0125 27.75C25.974 27.75 26.7297 27.2906 27.192 26.6319C27.6112 26.0343 27.75 25.341 27.75 24.775V20.4625C27.75 18.9591 26.5159 17.725 25.0125 17.725C23.6412 17.725 22.3129 17.5026 21.072 17.1012C20.0878 16.7699 19.0092 17.032 18.2768 17.7643Z" stroke="black" stroke-width="3"/>
</svg>
