<svg width="28" height="24" viewBox="0 0 28 24" fill="none" xmlns="http://www.w3.org/2000/svg">
<path d="M24.8802 2.66667C23.4585 1.25961 21.5807 0.407028 19.5856 0.262777C17.5905 0.118525 15.6096 0.692098 14.0002 1.88C12.3037 0.618184 10.1922 0.0460159 8.09077 0.278717C5.98934 0.511419 4.05413 1.5317 2.67484 3.13411C1.29555 4.73652 0.574634 6.80203 0.657273 8.91469C0.739911 11.0273 1.61996 13.0302 3.1202 14.52L11.1202 22.5867C11.8702 23.3357 12.8869 23.7565 13.9469 23.7565C15.0069 23.7565 16.0235 23.3357 16.7735 22.5867L24.7735 14.52C25.5614 13.7502 26.1895 12.8323 26.6215 11.819C27.0535 10.8057 27.281 9.717 27.2909 8.61551C27.3008 7.51401 27.0929 6.42141 26.6792 5.40051C26.2655 4.3796 25.6541 3.45052 24.8802 2.66667ZM23.0002 12.6133L15.0002 20.6133C14.8763 20.7383 14.7288 20.8375 14.5663 20.9052C14.4038 20.9729 14.2296 21.0077 14.0535 21.0077C13.8775 21.0077 13.7032 20.9729 13.5408 20.9052C13.3783 20.8375 13.2308 20.7383 13.1069 20.6133L5.10687 12.6133C4.06122 11.5445 3.47569 10.1086 3.47569 8.61333C3.47569 7.11805 4.06122 5.68221 5.10687 4.61333C6.17241 3.56132 7.6095 2.97143 9.10687 2.97143C10.6042 2.97143 12.0413 3.56132 13.1069 4.61333C13.2308 4.73831 13.3783 4.8375 13.5408 4.90519C13.7032 4.97288 13.8775 5.00773 14.0535 5.00773C14.2296 5.00773 14.4038 4.97288 14.5663 4.90519C14.7288 4.8375 14.8763 4.73831 15.0002 4.61333C16.0946 3.74252 17.4712 3.30497 18.8675 3.38412C20.2638 3.46328 21.5821 4.05361 22.571 5.04254C23.5599 6.03146 24.1503 7.34978 24.2294 8.74608C24.3086 10.1424 23.871 11.519 23.0002 12.6133Z" fill="black"/>
</svg>
