<svg width="46" height="46" viewBox="0 0 46 46" fill="none" xmlns="http://www.w3.org/2000/svg">
<g clip-path="url(#clip0_1_12)">
<path d="M31.625 5.75C28.29 5.75 25.0891 7.3025 23 9.75583C20.9108 7.3025 17.71 5.75 14.375 5.75C8.47165 5.75 3.83331 10.3883 3.83331 16.2917C3.83331 23.5367 10.35 29.44 20.2208 38.41L23 40.9208L25.7791 38.3908C35.65 29.44 42.1666 23.5367 42.1666 16.2917C42.1666 10.3883 37.5283 5.75 31.625 5.75ZM23.1916 35.5542L23 35.7458L22.8083 35.5542C13.685 27.2933 7.66665 21.8308 7.66665 16.2917C7.66665 12.4583 10.5416 9.58333 14.375 9.58333C17.3266 9.58333 20.2016 11.4808 21.2175 14.1067H24.8016C25.7983 11.4808 28.6733 9.58333 31.625 9.58333C35.4583 9.58333 38.3333 12.4583 38.3333 16.2917C38.3333 21.8308 32.315 27.2933 23.1916 35.5542Z" fill="#EE6C4D"/>
</g>
<defs>
<clipPath id="clip0_1_12">
<rect width="46" height="46" fill="white"/>
</clipPath>
</defs>
</svg>
