<svg width="25" height="28" viewBox="0 0 25 28" fill="none" xmlns="http://www.w3.org/2000/svg">
<path d="M24.6665 18C24.6636 17.1996 24.4206 16.4185 23.9689 15.7577C23.5173 15.0969 22.8778 14.5868 22.1332 14.2933L24.6265 4.96C24.6786 4.76123 24.684 4.55311 24.6424 4.35189C24.6008 4.15067 24.5132 3.96179 24.3865 3.8C24.257 3.64841 24.0951 3.52779 23.9128 3.44703C23.7306 3.36627 23.5325 3.32742 23.3332 3.33334H5.0665L4.6265 1.65334C4.55 1.36922 4.38167 1.11838 4.14774 0.939916C3.9138 0.76145 3.62741 0.665378 3.33317 0.666669H0.666504V3.33334H2.3065L5.61317 15.68C5.6913 15.9709 5.86562 16.2267 6.10773 16.4059C6.34985 16.5851 6.64549 16.677 6.9465 16.6667H20.6665C21.0201 16.6667 21.3593 16.8071 21.6093 17.0572C21.8594 17.3072 21.9998 17.6464 21.9998 18C21.9998 18.3536 21.8594 18.6928 21.6093 18.9428C21.3593 19.1929 21.0201 19.3333 20.6665 19.3333H3.33317C2.97955 19.3333 2.64041 19.4738 2.39036 19.7239C2.14031 19.9739 1.99984 20.313 1.99984 20.6667C1.99984 21.0203 2.14031 21.3594 2.39036 21.6095C2.64041 21.8595 2.97955 22 3.33317 22H4.9065C4.68722 22.6042 4.61675 23.2523 4.70108 23.8895C4.7854 24.5267 5.02203 25.1341 5.39093 25.6605C5.75983 26.1868 6.25012 26.6165 6.82031 26.9132C7.39049 27.2098 8.02377 27.3647 8.6665 27.3647C9.30924 27.3647 9.94252 27.2098 10.5127 26.9132C11.0829 26.6165 11.5732 26.1868 11.9421 25.6605C12.311 25.1341 12.5476 24.5267 12.6319 23.8895C12.7163 23.2523 12.6458 22.6042 12.4265 22H15.5732C15.3736 22.5501 15.2971 23.1374 15.3492 23.7203C15.4012 24.3032 15.5806 24.8676 15.8746 25.3736C16.1685 25.8797 16.57 26.3151 17.0506 26.649C17.5311 26.983 18.0791 27.2075 18.6559 27.3066C19.2327 27.4057 19.8242 27.377 20.3887 27.2226C20.9532 27.0682 21.477 26.7918 21.923 26.4129C22.369 26.034 22.7265 25.5618 22.9701 25.0297C23.2138 24.4976 23.3377 23.9186 23.3332 23.3333C23.3307 22.6445 23.1467 21.9685 22.7998 21.3733C23.37 21.0139 23.8401 20.5161 24.1664 19.9264C24.4927 19.3367 24.6648 18.674 24.6665 18ZM19.4532 14H7.99984L5.7865 6H21.5998L19.4532 14ZM8.6665 24.6667C8.4028 24.6667 8.14501 24.5885 7.92574 24.442C7.70648 24.2955 7.53558 24.0872 7.43466 23.8436C7.33375 23.5999 7.30734 23.3319 7.35879 23.0732C7.41024 22.8146 7.53723 22.577 7.7237 22.3905C7.91017 22.2041 8.14774 22.0771 8.40638 22.0256C8.66503 21.9742 8.93311 22.0006 9.17675 22.1015C9.42038 22.2024 9.62862 22.3733 9.77513 22.5926C9.92164 22.8118 9.99984 23.0696 9.99984 23.3333C9.99984 23.687 9.85936 24.0261 9.60931 24.2761C9.35926 24.5262 9.02013 24.6667 8.6665 24.6667ZM19.3332 24.6667C19.0695 24.6667 18.8117 24.5885 18.5924 24.442C18.3731 24.2955 18.2022 24.0872 18.1013 23.8436C18.0004 23.5999 17.974 23.3319 18.0255 23.0732C18.0769 22.8146 18.2039 22.577 18.3904 22.3905C18.5768 22.2041 18.8144 22.0771 19.073 22.0256C19.3317 21.9742 19.5998 22.0006 19.8434 22.1015C20.087 22.2024 20.2953 22.3733 20.4418 22.5926C20.5883 22.8118 20.6665 23.0696 20.6665 23.3333C20.6665 23.687 20.526 24.0261 20.276 24.2761C20.0259 24.5262 19.6868 24.6667 19.3332 24.6667Z" fill="black"/>
</svg>
