<svg width="18" height="18" viewBox="0 0 18 18" fill="none" xmlns="http://www.w3.org/2000/svg">
<g clip-path="url(#clip0_170_15328)">
<circle cx="9" cy="9" r="6.5" stroke="white"/>
<path d="M8.01278 13.4844L8.26859 13.6016C8.60682 13.7564 8.82047 14.073 8.82047 14.4192C8.82047 14.9241 9.44856 15.5002 9.99994 15.5002C11.487 15.5002 11.5142 15.1011 12.2167 14.6593C12.3986 14.5449 12.5774 14.4228 12.7294 14.2708L13.9999 13.0002C14.3999 12.6002 13.1829 12.4168 12.5244 12.375C11.8873 12.375 11.2435 11.9623 11.2435 11.2656V10.8958C11.2435 10.0789 10.5203 9.41666 9.62817 9.41666H7.20509C6.75901 9.41666 6.3974 9.08553 6.3974 8.67706C6.3974 8.2686 6.75901 7.93747 7.20509 7.93747H7.80554C8.36607 7.93747 8.82047 7.52138 8.82047 7.00811V6.88809C8.82047 6.31279 9.43598 5.90656 10.032 6.08848C10.628 6.27041 11.2435 5.86418 11.2435 5.28888V5.06359C11.2435 4.65787 10.7199 3.52721 10.2478 3.13306C10.103 3.01217 9.91431 2.95727 9.7456 2.87293L9.25428 2.62731C9.08557 2.54296 8.90622 2.47867 8.71769 2.473C7.89995 2.44838 6.51253 2.77296 5.82085 3.08982C5.71633 3.1377 5.62145 3.20289 5.53167 3.27471L4.13485 4.39215C4.04508 4.46397 3.9463 4.52425 3.85637 4.59588C3.24378 5.08381 3.16663 6.2594 3.16663 7.00005C3.16663 7.60027 3.42702 8.17591 3.89051 8.60033L6.74673 11.2157C7.04021 11.4845 7.20509 11.849 7.20509 12.229V12.2877C7.20509 12.7945 7.51777 13.2578 8.01278 13.4844Z" fill="white"/>
</g>
<defs>
<clipPath id="clip0_170_15328">
<rect width="18" height="18" fill="white"/>
</clipPath>
</defs>
</svg>
