<svg width="18" height="18" viewBox="0 0 18 18" fill="none" xmlns="http://www.w3.org/2000/svg">
<g clip-path="url(#clip0_170_15430)">
<path d="M2.5 2.5V13.5C2.5 14.4428 2.5 14.9142 2.79289 15.2071C3.08579 15.5 3.55719 15.5 4.5 15.5H15.5M5 12.5L5.3286 11.5142C5.61927 10.6422 5.7646 10.2062 6.07957 10.1687C6.39453 10.1312 6.63811 10.521 7.12528 11.3004L7.2282 11.4651C7.7699 12.3318 8.04075 12.7652 8.36961 12.7109C8.69846 12.6565 8.81551 12.1591 9.04961 11.1642L9.936 7.39698C10.1754 6.37955 10.2951 5.87083 10.6277 5.81898C10.9603 5.76712 11.2292 6.21526 11.7669 7.11152L12.1958 7.82638C12.7473 8.74543 13.023 9.20495 13.3586 9.14918C13.6943 9.09341 13.8066 8.56941 14.0311 7.52142L15 3" stroke="white" stroke-linecap="round" stroke-linejoin="round"/>
</g>
<defs>
<clipPath id="clip0_170_15430">
<rect width="18" height="18" fill="white"/>
</clipPath>
</defs>
</svg>
