<svg width="50" height="50" viewBox="0 0 50 50" fill="none" xmlns="http://www.w3.org/2000/svg">
<circle cx="25" cy="25" r="23" stroke="#3D5A80" stroke-width="4"/>
<path d="M26.5 14C26.5 13.1716 25.8284 12.5 25 12.5C24.1716 12.5 23.5 13.1716 23.5 14L26.5 14ZM23.9393 38.0607C24.5251 38.6464 25.4749 38.6464 26.0607 38.0607L35.6066 28.5147C36.1924 27.9289 36.1924 26.9792 35.6066 26.3934C35.0208 25.8076 34.0711 25.8076 33.4853 26.3934L25 34.8787L16.5147 26.3934C15.9289 25.8076 14.9792 25.8076 14.3934 26.3934C13.8076 26.9792 13.8076 27.9289 14.3934 28.5147L23.9393 38.0607ZM23.5 14L23.5 37L26.5 37L26.5 14L23.5 14Z" fill="#3D5A80"/>
</svg>
