<svg width="30" height="30" viewBox="0 0 30 30" fill="none" xmlns="http://www.w3.org/2000/svg">
<path d="M29.1666 9.07834C29.1734 8.98875 29.1734 8.89877 29.1666 8.80917V8.80917L26.3333 1.72584C26.2226 1.44584 26.0256 1.20838 25.7709 1.0479C25.5162 0.887422 25.2169 0.812267 24.9166 0.83334H5.08325C4.79952 0.833065 4.52225 0.917993 4.28735 1.07712C4.05244 1.23625 3.87073 1.46225 3.76575 1.72584L0.932419 8.80917C0.92559 8.89877 0.92559 8.98875 0.932419 9.07834C0.885344 9.1572 0.851824 9.2434 0.833252 9.33334V9.33334C0.84902 10.3126 1.11832 11.2711 1.61489 12.1152C2.11146 12.9594 2.81834 13.6604 3.66659 14.15V27.75C3.66659 28.1257 3.81584 28.4861 4.08152 28.7517C4.34719 29.0174 4.70753 29.1667 5.08325 29.1667H24.9166C25.2923 29.1667 25.6526 29.0174 25.9183 28.7517C26.184 28.4861 26.3333 28.1257 26.3333 27.75V14.2067C27.1897 13.7122 27.9018 13.0023 28.3989 12.1473C28.896 11.2924 29.1606 10.3223 29.1666 9.33334V9.33334C29.1799 9.24886 29.1799 9.16282 29.1666 9.07834V9.07834ZM16.4166 26.3333H13.5833V20.6667H16.4166V26.3333ZM23.4999 26.3333H19.2499V19.25C19.2499 18.8743 19.1007 18.514 18.835 18.2483C18.5693 17.9826 18.209 17.8333 17.8333 17.8333H12.1666C11.7909 17.8333 11.4305 17.9826 11.1649 18.2483C10.8992 18.514 10.7499 18.8743 10.7499 19.25V26.3333H6.49992V15C7.30667 14.9955 8.10314 14.8187 8.83608 14.4815C9.56901 14.1444 10.2215 13.6546 10.7499 13.045C11.2817 13.648 11.9357 14.1309 12.6684 14.4617C13.4012 14.7925 14.196 14.9635 14.9999 14.9635C15.8039 14.9635 16.5986 14.7925 17.3314 14.4617C18.0642 14.1309 18.7181 13.648 19.2499 13.045C19.7783 13.6546 20.4308 14.1444 21.1638 14.4815C21.8967 14.8187 22.6932 14.9955 23.4999 15V26.3333ZM23.4999 12.1667C22.7485 12.1667 22.0278 11.8682 21.4965 11.3368C20.9651 10.8055 20.6666 10.0848 20.6666 9.33334C20.6666 8.95762 20.5173 8.59728 20.2517 8.33161C19.986 8.06593 19.6256 7.91667 19.2499 7.91667C18.8742 7.91667 18.5139 8.06593 18.2482 8.33161C17.9825 8.59728 17.8333 8.95762 17.8333 9.33334C17.8333 10.0848 17.5347 10.8055 17.0034 11.3368C16.472 11.8682 15.7514 12.1667 14.9999 12.1667C14.2485 12.1667 13.5278 11.8682 12.9965 11.3368C12.4651 10.8055 12.1666 10.0848 12.1666 9.33334C12.1666 8.95762 12.0173 8.59728 11.7517 8.33161C11.486 8.06593 11.1256 7.91667 10.7499 7.91667C10.3742 7.91667 10.0139 8.06593 9.74818 8.33161C9.48251 8.59728 9.33325 8.95762 9.33325 9.33334C9.34721 9.70542 9.28774 10.0766 9.15824 10.4257C9.02874 10.7748 8.83175 11.095 8.57852 11.3679C8.32529 11.6409 8.02077 11.8613 7.68235 12.0166C7.34393 12.1719 6.97825 12.259 6.60617 12.2729C5.85472 12.3011 5.12286 12.0296 4.57158 11.5182C4.29861 11.265 4.0782 10.9604 3.92292 10.622C3.76764 10.2836 3.68054 9.91792 3.66659 9.54584L6.04659 3.66667H23.9533L26.3333 9.54584C26.2796 10.2599 25.9575 10.9271 25.4319 11.4133C24.9062 11.8995 24.216 12.1687 23.4999 12.1667V12.1667Z" fill="white"/>
</svg>
